<svg width="335" height="335" viewBox="0 0 335 335" fill="none" xmlns="http://www.w3.org/2000/svg">
<rect width="335" height="335" rx="50" fill="#0077FF"/>
<path d="M96 272.667C90.1333 272.667 85.1111 270.578 80.9333 266.4C76.7556 262.222 74.6667 257.2 74.6667 251.333V144.667C74.6667 138.8 76.7556 133.778 80.9333 129.6C85.1111 125.422 90.1333 123.333 96 123.333H106.667V102C106.667 87.2445 111.867 74.6667 122.267 64.2667C132.667 53.8667 145.244 48.6667 160 48.6667C174.756 48.6667 187.333 53.8667 197.733 64.2667C208.133 74.6667 213.333 87.2445 213.333 102V123.333H224C229.867 123.333 234.889 125.422 239.067 129.6C243.244 133.778 245.333 138.8 245.333 144.667V251.333C245.333 257.2 243.244 262.222 239.067 266.4C234.889 270.578 229.867 272.667 224 272.667H96ZM160 219.333C165.867 219.333 170.889 217.244 175.067 213.067C179.244 208.889 181.333 203.867 181.333 198C181.333 192.133 179.244 187.111 175.067 182.933C170.889 178.756 165.867 176.667 160 176.667C154.133 176.667 149.111 178.756 144.933 182.933C140.756 187.111 138.667 192.133 138.667 198C138.667 203.867 140.756 208.889 144.933 213.067C149.111 217.244 154.133 219.333 160 219.333ZM128 123.333H192V102C192 93.1111 188.889 85.5556 182.667 79.3334C176.444 73.1111 168.889 70 160 70C151.111 70 143.556 73.1111 137.333 79.3334C131.111 85.5556 128 93.1111 128 102V123.333Z" fill="white"/>
</svg>
