<svg width="335" height="335" viewBox="0 0 335 335" fill="none" xmlns="http://www.w3.org/2000/svg">
<rect width="335" height="335" rx="50" fill="#0077FF"/>
<path d="M201.336 75.712C203.896 71.104 207.565 68.8 212.344 68.8H259.192C261.069 68.8 262.691 69.4827 264.056 70.848C265.421 72.2133 266.104 73.8347 266.104 75.712V241.088C266.104 242.965 265.421 244.587 264.056 245.952C262.691 247.317 261.069 248 259.192 248H212.856C210.979 248 209.357 247.317 207.992 245.952C206.627 244.587 205.944 242.965 205.944 241.088V161.728L187.256 198.592C186.744 199.787 185.549 201.152 183.672 202.688C181.795 204.224 179.405 204.992 176.504 204.992H159.096C156.195 204.992 153.805 204.224 151.928 202.688C150.051 201.152 148.856 199.787 148.344 198.592L129.656 161.728V241.088C129.656 242.965 128.973 244.587 127.608 245.952C126.243 247.317 124.621 248 122.744 248H76.408C74.5307 248 72.9093 247.317 71.544 245.952C70.1787 244.587 69.496 242.965 69.496 241.088V75.712C69.496 73.8347 70.1787 72.2133 71.544 70.848C72.9093 69.4827 74.5307 68.8 76.408 68.8H123.256C128.035 68.8 131.704 71.104 134.264 75.712L167.8 137.152L201.336 75.712Z" fill="white"/>
</svg>
