<svg width="1458" height="336" viewBox="0 0 1458 336" fill="none" xmlns="http://www.w3.org/2000/svg">
<rect y="10" width="320" height="320" rx="50" fill="#0077FF"/>
<path d="M193.336 85.712C195.896 81.104 199.565 78.8 204.344 78.8H251.192C253.069 78.8 254.691 79.4827 256.056 80.848C257.421 82.2133 258.104 83.8347 258.104 85.712V251.088C258.104 252.965 257.421 254.587 256.056 255.952C254.691 257.317 253.069 258 251.192 258H204.856C202.979 258 201.357 257.317 199.992 255.952C198.627 254.587 197.944 252.965 197.944 251.088V171.728L179.256 208.592C178.744 209.787 177.549 211.152 175.672 212.688C173.795 214.224 171.405 214.992 168.504 214.992H151.096C148.195 214.992 145.805 214.224 143.928 212.688C142.051 211.152 140.856 209.787 140.344 208.592L121.656 171.728V251.088C121.656 252.965 120.973 254.587 119.608 255.952C118.243 257.317 116.621 258 114.744 258H68.408C66.5307 258 64.9093 257.317 63.544 255.952C62.1787 254.587 61.496 252.965 61.496 251.088V85.712C61.496 83.8347 62.1787 82.2133 63.544 80.848C64.9093 79.4827 66.5307 78.8 68.408 78.8H115.256C120.035 78.8 123.704 81.104 126.264 85.712L159.8 147.152L193.336 85.712Z" fill="white"/>
<path d="M405.734 60.9375H442.648L490.5 203.262L538.215 60.9375H575.129L505.402 260H475.461L405.734 60.9375ZM384.406 60.9375H422.004L428.977 208.457V260H384.406V60.9375ZM558.859 60.9375H596.594V260H551.887V208.457L558.859 60.9375ZM672.473 112.07V260H629.68V112.07H672.473ZM627.082 73.7891C627.082 67.5911 629.27 62.5326 633.645 58.6133C638.02 54.6029 643.762 52.5977 650.871 52.5977C657.98 52.5977 663.723 54.6029 668.098 58.6133C672.564 62.5326 674.797 67.5911 674.797 73.7891C674.797 79.8958 672.564 84.9544 668.098 88.9648C663.723 92.8841 657.98 94.8438 650.871 94.8438C643.762 94.8438 638.02 92.8841 633.645 88.9648C629.27 84.9544 627.082 79.8958 627.082 73.7891ZM748.215 50V260H705.422V50H748.215ZM865.793 224.316V112.07H908.723V260H868.527L865.793 224.316ZM870.305 194.102L882.062 193.828C882.062 203.763 880.878 212.923 878.508 221.309C876.229 229.694 872.766 236.986 868.117 243.184C863.56 249.382 857.863 254.212 851.027 257.676C844.283 261.048 836.398 262.734 827.375 262.734C820.083 262.734 813.384 261.732 807.277 259.727C801.262 257.63 796.066 254.395 791.691 250.02C787.316 245.553 783.944 239.857 781.574 232.93C779.204 225.911 778.02 217.526 778.02 207.773V112.07H820.676V208.047C820.676 211.875 821.132 215.156 822.043 217.891C823.046 220.534 824.367 222.721 826.008 224.453C827.74 226.185 829.836 227.461 832.297 228.281C834.849 229.102 837.629 229.512 840.637 229.512C848.202 229.512 854.126 227.962 858.41 224.863C862.785 221.673 865.839 217.435 867.57 212.148C869.393 206.771 870.305 200.755 870.305 194.102ZM1015.23 218.848C1015.23 216.113 1014.36 213.698 1012.63 211.602C1010.99 209.505 1007.98 207.591 1003.61 205.859C999.322 204.128 993.26 202.396 985.422 200.664C978.039 199.115 971.158 197.109 964.777 194.648C958.397 192.096 952.837 189.043 948.098 185.488C943.358 181.842 939.667 177.559 937.023 172.637C934.38 167.624 933.059 161.927 933.059 155.547C933.059 149.349 934.38 143.47 937.023 137.91C939.758 132.35 943.677 127.428 948.781 123.145C953.977 118.861 960.266 115.488 967.648 113.027C975.122 110.566 983.599 109.336 993.078 109.336C1006.11 109.336 1017.37 111.387 1026.85 115.488C1036.33 119.499 1043.62 125.15 1048.72 132.441C1053.83 139.642 1056.38 147.891 1056.38 157.188H1013.72C1013.72 153.359 1012.99 150.033 1011.54 147.207C1010.08 144.382 1007.84 142.194 1004.84 140.645C1001.83 139.004 997.863 138.184 992.941 138.184C989.113 138.184 985.741 138.867 982.824 140.234C979.999 141.51 977.766 143.288 976.125 145.566C974.576 147.845 973.801 150.488 973.801 153.496C973.801 155.592 974.257 157.507 975.168 159.238C976.171 160.879 977.674 162.428 979.68 163.887C981.776 165.254 984.465 166.484 987.746 167.578C991.118 168.672 995.22 169.72 1000.05 170.723C1010.35 172.637 1019.74 175.326 1028.21 178.789C1036.78 182.253 1043.62 187.038 1048.72 193.145C1053.92 199.251 1056.52 207.318 1056.52 217.344C1056.52 223.906 1055.01 229.922 1052 235.391C1049.09 240.859 1044.85 245.645 1039.29 249.746C1033.73 253.848 1027.08 257.038 1019.33 259.316C1011.58 261.595 1002.83 262.734 993.078 262.734C979.133 262.734 967.329 260.228 957.668 255.215C948.007 250.202 940.715 243.913 935.793 236.348C930.962 228.691 928.547 220.853 928.547 212.832H968.605C968.788 217.754 970.018 221.764 972.297 224.863C974.667 227.962 977.72 230.241 981.457 231.699C985.194 233.066 989.387 233.75 994.035 233.75C998.684 233.75 1002.56 233.112 1005.66 231.836C1008.76 230.56 1011.12 228.828 1012.77 226.641C1014.41 224.362 1015.23 221.764 1015.23 218.848ZM1125.29 112.07V260H1082.49V112.07H1125.29ZM1079.89 73.7891C1079.89 67.5911 1082.08 62.5326 1086.46 58.6133C1090.83 54.6029 1096.57 52.5977 1103.68 52.5977C1110.79 52.5977 1116.54 54.6029 1120.91 58.6133C1125.38 62.5326 1127.61 67.5911 1127.61 73.7891C1127.61 79.8958 1125.38 84.9544 1120.91 88.9648C1116.54 92.8841 1110.79 94.8438 1103.68 94.8438C1096.57 94.8438 1090.83 92.8841 1086.46 88.9648C1082.08 84.9544 1079.89 79.8958 1079.89 73.7891ZM1149.89 187.539V184.668C1149.89 173.822 1151.44 163.841 1154.54 154.727C1157.64 145.521 1162.2 137.546 1168.21 130.801C1174.23 124.056 1181.61 118.815 1190.36 115.078C1199.11 111.25 1209.14 109.336 1220.44 109.336C1231.93 109.336 1242.04 111.25 1250.79 115.078C1259.63 118.815 1267.06 124.056 1273.08 130.801C1279.09 137.546 1283.65 145.521 1286.75 154.727C1289.85 163.841 1291.4 173.822 1291.4 184.668V187.539C1291.4 198.294 1289.85 208.275 1286.75 217.48C1283.65 226.595 1279.09 234.57 1273.08 241.406C1267.06 248.151 1259.68 253.392 1250.93 257.129C1242.18 260.866 1232.11 262.734 1220.71 262.734C1209.41 262.734 1199.34 260.866 1190.5 257.129C1181.66 253.392 1174.23 248.151 1168.21 241.406C1162.2 234.57 1157.64 226.595 1154.54 217.48C1151.44 208.275 1149.89 198.294 1149.89 187.539ZM1192.69 184.668V187.539C1192.69 193.372 1193.14 198.841 1194.05 203.945C1195.06 209.049 1196.65 213.516 1198.84 217.344C1201.03 221.172 1203.9 224.18 1207.45 226.367C1211.1 228.464 1215.52 229.512 1220.71 229.512C1225.91 229.512 1230.29 228.464 1233.84 226.367C1237.39 224.18 1240.27 221.172 1242.45 217.344C1244.64 213.516 1246.19 209.049 1247.1 203.945C1248.1 198.841 1248.61 193.372 1248.61 187.539V184.668C1248.61 178.926 1248.1 173.548 1247.1 168.535C1246.19 163.431 1244.64 158.919 1242.45 155C1240.27 151.081 1237.35 148.027 1233.7 145.84C1230.15 143.652 1225.73 142.559 1220.44 142.559C1215.34 142.559 1211.01 143.652 1207.45 145.84C1203.9 148.027 1201.03 151.081 1198.84 155C1196.65 158.919 1195.06 163.431 1194.05 168.535C1193.14 173.548 1192.69 178.926 1192.69 184.668ZM1355.66 143.652V260H1312.86V112.07H1353.06L1355.66 143.652ZM1350.05 180.84L1339.39 181.113C1339.39 169.993 1340.75 160.013 1343.49 151.172C1346.22 142.331 1350.1 134.811 1355.11 128.613C1360.21 122.324 1366.27 117.539 1373.29 114.258C1380.4 110.977 1388.24 109.336 1396.81 109.336C1403.74 109.336 1410.07 110.339 1415.81 112.344C1421.55 114.349 1426.48 117.585 1430.58 122.051C1434.77 126.426 1437.96 132.259 1440.15 139.551C1442.34 146.751 1443.43 155.638 1443.43 166.211V260H1400.5V166.074C1400.5 159.876 1399.63 155.091 1397.9 151.719C1396.17 148.346 1393.62 145.977 1390.25 144.609C1386.96 143.242 1382.95 142.559 1378.21 142.559C1373.2 142.559 1368.92 143.561 1365.36 145.566C1361.81 147.48 1358.89 150.169 1356.61 153.633C1354.33 157.096 1352.65 161.152 1351.55 165.801C1350.55 170.449 1350.05 175.462 1350.05 180.84Z" fill="#393E46"/>
</svg>
