<svg width="335" height="335" viewBox="0 0 335 335" fill="none" xmlns="http://www.w3.org/2000/svg">
<rect width="335" height="335" rx="50" fill="#0077FF"/>
<path d="M104 253.333C92.2667 253.333 82.2222 249.156 73.8667 240.8C65.5111 232.444 61.3333 222.4 61.3333 210.667V125.333C61.3333 113.6 65.5111 103.556 73.8667 95.2C82.2222 86.8445 92.2667 82.6667 104 82.6667H232C243.733 82.6667 253.778 86.8445 262.133 95.2C270.489 103.556 274.667 113.6 274.667 125.333V210.667C274.667 222.4 270.489 232.444 262.133 240.8C253.778 249.156 243.733 253.333 232 253.333H104ZM104 125.333H232C235.911 125.333 239.644 125.778 243.2 126.667C246.756 127.556 250.133 128.978 253.333 130.933V125.333C253.333 119.467 251.244 114.444 247.067 110.267C242.889 106.089 237.867 104 232 104H104C98.1333 104 93.1111 106.089 88.9333 110.267C84.7555 114.444 82.6667 119.467 82.6667 125.333V130.933C85.8667 128.978 89.2444 127.556 92.8 126.667C96.3555 125.778 100.089 125.333 104 125.333ZM84.2667 160L202.933 188.8C204.533 189.156 206.133 189.156 207.733 188.8C209.333 188.444 210.844 187.733 212.267 186.667L249.333 155.733C247.378 153.067 244.889 150.889 241.867 149.2C238.844 147.511 235.556 146.667 232 146.667H104C99.3778 146.667 95.3333 147.867 91.8667 150.267C88.4 152.667 85.8667 155.911 84.2667 160Z" fill="white"/>
</svg>
